<?xml version="1.0" standalone="no"?><!DOCTYPE svg PUBLIC "-//W3C//DTD SVG 1.1//EN" "http://www.w3.org/Graphics/SVG/1.1/DTD/svg11.dtd"><svg class="icon" width="64px" height="64.00px" viewBox="0 0 1024 1024" version="1.1" xmlns="http://www.w3.org/2000/svg"><path d="M526.489 24.85c-261.764 0-473.972 212.207-473.972 473.972 0 261.77 212.206 473.972 473.972 473.972 261.769 0 473.972-212.202 473.972-473.972 0-261.763-212.203-473.972-473.972-473.972v0zM523.462 776.323c-27.509 0-49.806-21.874-49.806-48.86s22.297-48.86 49.806-48.86c27.508 0 49.81 21.874 49.81 48.86 0 26.986-22.303 48.86-49.81 48.86v0zM711.32 442.724c-13.676 21.54-42.815 50.933-87.467 88.071-23.131 19.219-37.454 34.681-43.037 46.401-5.588 11.674-8.135 32.63-7.609 62.738h-99.555c-0.27-14.272-0.399-23.003-0.399-26.1 0-32.238 5.337-58.722 16.002-79.503 10.665-20.782 31.996-44.213 63.984-70.171 31.959-25.993 51.125-43.011 57.357-51.074 9.61-12.75 14.448-26.774 14.448-42.111 0-21.247-8.579-39.478-25.618-54.644-17.046-15.163-40.053-22.77-68.979-22.77-27.866 0-51.171 7.925-69.946 23.715-18.747 15.793-34.83 50.666-38.663 72.258-3.613 20.357-101.769 28.931-100.591-12.317 1.181-41.251 22.685-86.045 59.504-118.55 36.823-32.475 85.155-48.729 144.979-48.729 62.948 0 113.039 16.445 150.224 49.329 37.217 32.887 55.777 71.172 55.777 114.831 0 24.176-6.795 47.049-20.41 68.621v0zM711.32 442.724z" /></svg>