<?xml version="1.0" standalone="no"?><!DOCTYPE svg PUBLIC "-//W3C//DTD SVG 1.1//EN" "http://www.w3.org/Graphics/SVG/1.1/DTD/svg11.dtd"><svg t="1480670994443" class="icon" style="" viewBox="0 0 1024 1024" version="1.1" xmlns="http://www.w3.org/2000/svg" p-id="3125" xmlns:xlink="http://www.w3.org/1999/xlink" width="200" height="200"><defs><style type="text/css"></style></defs><path d="M958.947315 205.952c-26.273616-27.622141-69.348848-28.141899-96.206869-1.172687l-463.601778 465.36404L159.704972 423.996768c-24.864323-25.585778-66.550949-24.166141-93.137455 3.141818-26.585212 27.313131-27.968646 70.181495-3.074586 95.762101l292.676525 300.873697c24.857859 25.550869 66.549657 24.131232 93.13099-3.176727 6.09099-6.256485 10.651152-13.348202 14.070949-20.848485 2.631111-1.969131 5.257051-3.837414 7.641212-6.256485l486.798222-488.631596c26.894222-26.995071 27.379071-71.253333 1.141657-98.909091L958.947315 205.952 958.947315 205.952zM958.947315 205.952" p-id="3126"></path></svg>