<?xml version="1.0" standalone="no"?><!DOCTYPE svg PUBLIC "-//W3C//DTD SVG 1.1//EN" "http://www.w3.org/Graphics/SVG/1.1/DTD/svg11.dtd"><svg class="icon" width="128px" height="128.00px" viewBox="0 0 1024 1024" version="1.1" xmlns="http://www.w3.org/2000/svg"><path d="M879.480512 64.020082c-22.23235 0-42.339294 9.080819-56.830333 23.728424l-0.007163-0.007163L511.706311 398.677025 200.77063 87.741343l-0.007163 0.007163c-14.492062-14.647605-34.597983-23.728424-56.830333-23.728424-44.155662 0-79.950913 35.795251-79.950913 79.950913 0 22.23235 9.080819 42.339294 23.728424 56.830333l-0.007163 0.007163 310.935682 310.935682L87.702458 822.680878l0.007163 0.007163c-14.647605 14.492062-23.728424 34.597983-23.728424 56.830333 0 44.155662 35.795251 79.950913 79.950913 79.950913 22.23235 0 42.339294-9.080819 56.830333-23.728424l0.007163 0.007163 310.935682-310.935682 310.935682 310.935682 0.007163-0.007163c14.492062 14.647605 34.597983 23.728424 56.830333 23.728424 44.155662 0 79.950913-35.795251 79.950913-79.950913 0-22.23235-9.080819-42.339294-23.728424-56.830333l0.007163-0.007163L624.77346 511.745197l310.935682-310.935682-0.007163-0.007163c14.647605-14.492062 23.728424-34.597983 23.728424-56.830333C959.431425 99.815333 923.635151 64.020082 879.480512 64.020082z" /></svg>