<?xml version="1.0" standalone="no"?><!DOCTYPE svg PUBLIC "-//W3C//DTD SVG 1.1//EN" "http://www.w3.org/Graphics/SVG/1.1/DTD/svg11.dtd"><svg t="1481034642417" class="icon" style="" viewBox="0 0 1024 1024" version="1.1" xmlns="http://www.w3.org/2000/svg" p-id="1837" xmlns:xlink="http://www.w3.org/1999/xlink" width="200" height="200"><defs><style type="text/css"></style></defs><path d="M511.989255 64.084551c-247.226684 0-447.674972 200.428845-447.674972 447.674972 0 247.24715 200.449311 447.674972 447.674972 447.674972 247.24715 0 447.695438-200.427822 447.695438-447.674972C959.684694 264.513396 759.236406 64.084551 511.989255 64.084551zM676.012959 632.621195c5.544273 5.523807 8.94165 13.154601 8.94165 21.581528 0 16.851806-13.651928 30.523177-30.503734 30.523177-8.42488 0-16.07614-3.417843-21.599947-8.942673L511.989255 554.922578 391.14805 675.783227c-5.523807 5.52483-13.154601 8.942673-21.600971 8.942673-16.850783 0-30.502711-13.671371-30.502711-30.523177 0-8.425903 3.397377-16.056698 8.922207-21.581528l120.860648-120.860648L347.966575 390.898875c-5.523807-5.523807-8.922207-13.155624-8.922207-21.581528 0-16.850783 13.651928-30.523177 30.502711-30.523177 8.446369 0 16.077164 3.417843 21.600971 8.942673l120.841206 120.860648 120.861672-120.860648c5.523807-5.52483 13.175067-8.942673 21.599947-8.942673 16.851806 0 30.503734 13.672394 30.503734 30.523177 0 8.425903-3.397377 16.056698-8.94165 21.581528L555.171754 511.760546 676.012959 632.621195z" p-id="1838"></path></svg>