<?xml version="1.0" standalone="no"?><!DOCTYPE svg PUBLIC "-//W3C//DTD SVG 1.1//EN" "http://www.w3.org/Graphics/SVG/1.1/DTD/svg11.dtd"><svg class="icon" width="64px" height="64.00px" viewBox="0 0 1024 1024" version="1.1" xmlns="http://www.w3.org/2000/svg"><path d="M321.664 339.968c27.712 0 50.112-22.464 50.112-50.176L371.776 114.176C371.776 86.464 349.312 64 321.664 64 294.016 64 271.616 86.464 271.616 114.176l0 175.616C271.616 317.44 294.016 339.968 321.664 339.968zM702.4 339.968c27.648 0 50.048-22.464 50.048-50.176L752.448 114.176C752.448 86.464 729.984 64 702.4 64c-27.776 0-50.112 22.464-50.112 50.176l0 175.616C652.224 317.44 674.624 339.968 702.4 339.968zM612.608 177.28 411.392 177.28l0 60.224 201.216 0L612.608 177.28zM832.896 177.28l-20.736 0 0 60.224 20.736 0c21.76 0 40.064 18.368 40.064 40.128l0 121.28L151.04 398.912 151.04 277.632c0-21.76 18.368-40.128 40.064-40.128l39.552 0L230.656 177.28 191.168 177.28c-55.104 0-100.16 45.184-100.16 100.352l0 582.016C90.944 914.88 136 960 191.168 960l641.728 0c55.04 0 100.096-45.12 100.096-100.352L932.992 277.632C932.992 222.464 887.936 177.28 832.896 177.28zM872.96 859.648c0 21.76-18.304 40.128-40.064 40.128L191.168 899.776c-21.76 0-40.064-18.368-40.064-40.128L151.104 457.792 872.96 457.792 872.96 859.648zM311.68 626.752c27.648 0 50.112-22.528 50.112-50.176S339.328 526.4 311.68 526.4 261.568 548.864 261.568 576.576 284.032 626.752 311.68 626.752zM512 626.752c27.648 0 50.112-22.528 50.112-50.176S539.648 526.4 512 526.4 461.888 548.864 461.888 576.576 484.352 626.752 512 626.752zM311.68 827.392c27.648 0 50.112-22.4 50.112-50.112S339.328 727.04 311.68 727.04s-50.112 22.464-50.112 50.176S284.032 827.392 311.68 827.392zM512 827.392c27.648 0 50.112-22.4 50.112-50.112S539.648 727.04 512 727.04s-50.112 22.464-50.112 50.176S484.352 827.392 512 827.392zM712.384 626.752c27.648 0 50.048-22.528 50.048-50.176s-22.464-50.176-50.048-50.176c-27.712 0-50.112 22.528-50.112 50.176S684.672 626.752 712.384 626.752z" /></svg>