<?xml version="1.0" standalone="no"?><!DOCTYPE svg PUBLIC "-//W3C//DTD SVG 1.1//EN" "http://www.w3.org/Graphics/SVG/1.1/DTD/svg11.dtd"><svg t="1482480817581" class="icon" style="" viewBox="0 0 1024 1024" version="1.1" xmlns="http://www.w3.org/2000/svg" p-id="2558" xmlns:xlink="http://www.w3.org/1999/xlink" width="200" height="200"><defs><style type="text/css"></style></defs><path d="M779.009751 854.726735 250.996033 854.726735c-48.599881 0-88.002286-39.446407-88.002286-88.002286L162.993746 238.709707c0-48.641837 39.402405-88.002286 88.002286-88.002286l0 44.001143 0 44.001143c0 24.278963 19.72218 44.001143 44.001143 44.001143l88.002286 0c24.27794 0 44.001143-19.72218 44.001143-44.001143l0-44.001143 0-44.001143 176.004573 0 0 44.001143 0 44.001143c0 24.278963 19.723204 44.001143 44.001143 44.001143l88.002286 0c24.278963 0 44.001143-19.72218 44.001143-44.001143l0-44.001143 0-44.001143c48.598858 0 88.00331 39.36045 88.00331 88.002286l0 528.014742C867.013061 815.280328 827.608609 854.726735 779.009751 854.726735zM779.009751 414.715303c0-24.321942-19.72218-44.001143-44.001143-44.001143l-440.011432 0c-24.278963 0-44.001143 19.679202-44.001143 44.001143L250.996033 722.723306c0 24.27794 19.72218 44.001143 44.001143 44.001143l440.011432 0c24.278963 0 44.001143-19.723204 44.001143-44.001143L779.009751 414.715303zM603.004155 590.719876l88.002286 0 0 88.002286-88.002286 0L603.004155 590.719876zM603.004155 458.716446l88.002286 0 0 88.002286-88.002286 0L603.004155 458.716446zM471.001749 590.719876l88.002286 0 0 88.002286-88.002286 0L471.001749 590.719876zM471.001749 458.716446l88.002286 0 0 88.002286-88.002286 0L471.001749 458.716446zM338.998319 590.719876l88.002286 0 0 88.002286-88.002286 0L338.998319 590.719876zM338.998319 458.716446l88.002286 0 0 88.002286-88.002286 0L338.998319 458.716446zM647.006322 150.70742l88.002286 0 0 88.002286-88.002286 0L647.006322 150.70742zM294.997176 150.70742l88.002286 0 0 88.002286-88.002286 0L294.997176 150.70742z" p-id="2559"></path></svg>