<?xml version="1.0" standalone="no"?><!DOCTYPE svg PUBLIC "-//W3C//DTD SVG 1.1//EN" "http://www.w3.org/Graphics/SVG/1.1/DTD/svg11.dtd"><svg width="200" height="200" viewBox="0 0 200 200" version="1.1" xmlns="http://www.w3.org/2000/svg" xmlns:xlink="http://www.w3.org/1999/xlink"><defs><style type="text/css"><![CDATA[
@font-face { font-family: ifont; src: url(http://at.alicdn.com/t/font_1442373896_4754455.eot?#iefix) format(embedded-opentype), url(http://at.alicdn.com/t/font_1442373896_4754455.woff) format(woff), url(http://at.alicdn.com/t/font_1442373896_4754455.ttf) format(truetype), url(http://at.alicdn.com/t/font_1442373896_4754455.svg#ifont) format(svg); }

]]></style></defs><g class="transform-group"><g transform="scale(0.1953125, 0.1953125)"><path d="M664.80128 663.18336 400.13824 663.18336c-12.1856 0-22.05696 9.728-22.05696 21.74976 0 12.00128 9.87136 21.74976 22.05696 21.74976l264.66304 0c12.1856 0 22.05696-9.74848 22.05696-21.74976C686.85824 672.91136 676.98688 663.18336 664.80128 663.18336zM664.80128 532.70528 400.13824 532.70528c-12.1856 0-22.05696 9.728-22.05696 21.74976 0 12.00128 9.87136 21.74976 22.05696 21.74976l264.66304 0c12.1856 0 22.05696-9.728 22.05696-21.74976C686.85824 542.43328 676.98688 532.70528 664.80128 532.70528zM642.7648 184.77056l0 0.6144c-2.84672 0-14.58176-1.08544-44.11392-0.6144L333.98784 184.77056C285.26592 184.77056 245.76 223.72352 245.76 271.7696l0 521.89184C245.76 841.68704 285.26592 880.64 333.98784 880.64l397.0048 0C779.69408 880.64 819.2 841.68704 819.2 793.66144L819.2 358.74816 642.7648 184.77056zM775.08608 793.66144c0 24.02304-19.74272 43.49952-44.11392 43.49952L333.98784 837.16096c-24.3712 0-44.11392-19.47648-44.11392-43.49952L289.87392 271.7696c0-24.02304 19.74272-43.49952 44.11392-43.49952L598.016 228.27008c-0.4096 52.08064 0.63488 86.97856 0.63488 86.97856 0 48.04608 39.50592 86.97856 88.22784 86.97856 0 0 36.864 0 88.22784 0L775.10656 793.66144zM686.85824 358.74816c-24.3712 0-44.11392-19.47648-44.11392-43.49952 0 0 0-35.20512 0-86.97856l132.34176 130.47808L686.85824 358.74816z" fill="#272636"></path></g></g></svg>