<?xml version="1.0" standalone="no"?><!DOCTYPE svg PUBLIC "-//W3C//DTD SVG 1.1//EN" "http://www.w3.org/Graphics/SVG/1.1/DTD/svg11.dtd"><svg class="icon" width="64px" height="64.00px" viewBox="0 0 1024 1024" version="1.1" xmlns="http://www.w3.org/2000/svg"><path d="M711.824 624.514c-38.27 0-76.914-7.712-113.75-23.544a7.996 7.996 0 0 1-4.2-10.494c1.75-4.058 6.434-5.9 10.508-4.184 102.632 44.094 220.11 21.39 299.29-57.802 51.446-51.456 79.8-119.71 79.8-192.208 0-72.478-28.34-140.736-79.786-192.174-51.464-51.456-119.73-79.794-192.208-79.794-72.48 0-140.746 28.338-192.192 79.794-79.264 79.264-101.92 196.812-57.702 299.482a8 8 0 0 1-14.692 6.324c-46.818-108.72-22.834-233.194 61.088-317.11 54.478-54.476 126.74-84.478 203.498-84.478s149.032 30.002 203.512 84.478c54.46 54.462 84.468 126.73 84.468 203.488s-30.008 149.028-84.484 203.504c-55.412 55.426-128.548 84.718-203.15 84.718zM406.244 751.422a7.984 7.984 0 0 1-5.652-2.342l-101.756-101.772a7.98 7.98 0 0 1-2.342-5.652V596.44a7.98 7.98 0 0 1 2.342-5.652l124.364-124.364a7.992 7.992 0 0 1 11.304 0l146.972 146.974a7.986 7.986 0 0 1 0 11.304l-124.378 124.348a7.984 7.984 0 0 1-5.644 2.342l-45.204 0.032-0.006-0.002z m-93.762-113.074l97.072 97.086 38.582-0.032 116.388-116.354-135.67-135.668-116.37 116.37v38.598z"  /><path d="M508 694.9a7.874 7.874 0 0 1-5.2-1.936l-158.286-135.684a7.966 7.966 0 0 1-0.868-11.258 7.982 7.982 0 0 1 11.266-0.86l158.286 135.684a7.968 7.968 0 0 1 0.868 11.258A7.918 7.918 0 0 1 508 694.9zM541.914 660.988a7.87 7.87 0 0 1-5.2-1.938l-158.288-135.692a7.976 7.976 0 0 1-0.866-11.266 7.978 7.978 0 0 1 11.266-0.868l158.286 135.708a7.974 7.974 0 0 1 0.86 11.256 7.878 7.878 0 0 1-6.058 2.8zM474.078 728.814a7.874 7.874 0 0 1-5.2-1.936l-158.286-135.686a7.968 7.968 0 0 1-0.866-11.258 7.98 7.98 0 0 1 11.266-0.858l158.286 135.684a7.968 7.968 0 0 1 0.866 11.258 7.918 7.918 0 0 1-6.066 2.796zM376.428 746.55c-15.652 0-32.234-8.648-49.332-25.762-44.694-44.75-18.12-72.324-16.964-73.48a7.992 7.992 0 0 1 11.39 11.21c-0.834 0.922-15.808 18.238 16.878 50.964 32.93 32.946 50.27 17.548 50.988 16.894 3.176-2.966 8.212-2.904 11.25 0.25 3.02 3.152 3.036 8.054-0.046 11.148-0.796 0.794-8.158 7.804-21.376 8.68-0.922 0.066-1.85 0.096-2.788 0.096z"  /><path d="M513.588 836.144c-0.796 0-1.6-0.124-2.388-0.376a7.99 7.99 0 0 1-5.48-6.184c-6.722-37.066-24.544-89.36-43.11-89.562a7.992 7.992 0 0 1-7.908-8.086c0.038-4.42 3.722-8.308 8.08-7.902 31.296 0.344 48.606 57.524 55.546 87.594 92.816-101.442 40.262-175.81 39.7-176.576a8.002 8.002 0 0 1 1.714-11.18c3.562-2.638 8.558-1.826 11.18 1.716 0.656 0.906 64.894 91.67-51.68 208.21a7.96 7.96 0 0 1-5.654 2.346zM315.738 593.066a7.996 7.996 0 0 1-7.996-7.9c-0.194-18.564-52.478-36.38-89.544-43.094a7.998 7.998 0 0 1-4.224-13.522c116.542-116.566 207.33-52.354 208.226-51.698a7.984 7.984 0 0 1 1.718 11.14 8.004 8.004 0 0 1-11.156 1.772c-3.124-2.248-75.774-52.72-176.632 39.692 30.08 6.932 87.274 24.248 87.602 55.522a7.992 7.992 0 0 1-7.908 8.088h-0.086z"  /><path d="M428.852 480.07a7.948 7.948 0 0 1-5.66-2.35 7.988 7.988 0 0 1 0.016-11.304l25.388-25.326c3.13-3.108 8.19-3.124 11.304 0.016a7.992 7.992 0 0 1-0.016 11.304l-25.388 25.326a7.968 7.968 0 0 1-5.644 2.334zM575.824 627.042a7.964 7.964 0 0 1-5.648-2.342 7.988 7.988 0 0 1 0-11.304l25.418-25.388a7.992 7.992 0 1 1 11.304 11.304l-25.422 25.388a7.956 7.956 0 0 1-5.652 2.342zM496.678 502.678a7.992 7.992 0 0 1-5.652-13.646l56.524-56.538a7.992 7.992 0 1 1 11.304 11.304l-56.524 56.538a7.96 7.96 0 0 1-5.652 2.342zM553.204 559.216a7.966 7.966 0 0 1-5.652-2.342 7.988 7.988 0 0 1 0-11.304l56.536-56.54a7.992 7.992 0 1 1 11.304 11.304l-56.536 56.54a7.976 7.976 0 0 1-5.652 2.342z"  /><path d="M604.024 451.746c-0.282 0-0.578-0.016-0.872-0.046l-50.824-5.606a8 8 0 0 1-7.074-8.822c0.484-4.378 4.464-7.494 8.82-7.072l50.824 5.606a8 8 0 0 1 7.074 8.822 8.004 8.004 0 0 1-7.948 7.118z"  /><path d="M609.738 502.678a7.996 7.996 0 0 1-7.946-7.104l-5.714-50.932a8 8 0 0 1 7.058-8.836c4.418-0.438 8.352 2.678 8.836 7.056l5.714 50.932a8.004 8.004 0 0 1-7.948 8.884zM576.278 423.064a7.992 7.992 0 0 1-5.652-13.646l78.68-78.664a7.994 7.994 0 0 1 11.304 11.304l-78.68 78.662a7.952 7.952 0 0 1-5.652 2.344z"  /><path d="M654.958 344.4a7.992 7.992 0 0 1-5.652-13.646 23.854 23.854 0 0 0 7.028-16.964c0-6.402-2.5-12.42-7.028-16.942-9.054-9.064-24.856-9.086-33.914-0.008a8.004 8.004 0 0 1-11.304 0.008 8.002 8.002 0 0 1 0-11.312 39.688 39.688 0 0 1 28.262-11.71c10.68 0 20.704 4.162 28.262 11.71 7.558 7.542 11.71 17.572 11.71 28.252s-4.152 20.72-11.71 28.268a7.97 7.97 0 0 1-5.654 2.344z"  /><path d="M609.738 344.4a7.998 7.998 0 0 1-5.652-2.334c-7.554-7.556-11.726-17.596-11.726-28.268s4.172-20.712 11.726-28.268a8 8 0 1 1 11.304 11.32c-4.528 4.528-7.04 10.548-7.04 16.95s2.512 12.42 7.04 16.948a8 8 0 0 1-5.652 13.652zM632.816 479.602a7.992 7.992 0 0 1-5.652-13.646l78.664-78.678a7.992 7.992 0 1 1 11.304 11.304l-78.664 78.678a7.97 7.97 0 0 1-5.652 2.342z"  /><path d="M756.71 446.14a7.992 7.992 0 0 1-5.652-13.646c9.356-9.344 9.356-24.56-0.016-33.914-9.054-9.056-24.84-9.056-33.91 0a7.992 7.992 0 1 1-11.304-11.304c15.582-15.584 40.954-15.584 56.536 0 15.57 15.59 15.57 40.948 0 56.522a7.964 7.964 0 0 1-5.654 2.342z"  /><path d="M734.09 455.494a39.864 39.864 0 0 1-28.262-11.694 7.988 7.988 0 0 1 0-11.304 7.988 7.988 0 0 1 11.304 0c9.352 9.352 24.574 9.352 33.926 0a7.988 7.988 0 0 1 11.304 0 7.988 7.988 0 0 1 0 11.304 39.862 39.862 0 0 1-28.272 11.694zM666.262 400.922a7.966 7.966 0 0 1-5.652-2.342l-11.304-11.304a7.992 7.992 0 1 1 11.304-11.304l11.304 11.304a7.992 7.992 0 0 1-5.652 13.646zM581.476 191.666a7.992 7.992 0 0 1-5.652-13.646c36.258-36.272 84.442-56.25 135.656-56.25 51.21 0 99.398 19.978 135.668 56.25a7.992 7.992 0 0 1 0 11.304 7.988 7.988 0 0 1-11.304 0C802.602 156.074 758.43 137.76 711.48 137.76c-46.938 0-91.11 18.314-124.352 51.564a7.964 7.964 0 0 1-5.652 2.342z"  /><path d="M165.54 893.446c-4.02 0-6.556-1.702-7.978-3.122-18.064-18.066 78.132-123.334 79.146-124.35 12.07-12.084 33.132-12.084 45.218 0 12.458 12.458 12.458 32.758 0 45.216-0.82 0.814-92.816 82.256-116.386 82.256z m93.778-120.85a15.84 15.84 0 0 0-11.304 4.684c-11.562 11.554-60.948 72.384-74.268 96.87 24.49-13.304 85.322-62.708 96.876-74.26 6.222-6.23 6.222-16.378 0-22.61a15.844 15.844 0 0 0-11.304-4.684z"  /><path d="M134.236 943.222c-9.424 0-16.792-2.576-21.89-7.682-15.366-15.348-7.9-49.884 22.796-105.58 22.944-41.626 52.978-83.222 67.648-97.898 15.098-15.116 35.17-23.422 56.522-23.422 21.36 0 41.432 8.306 56.53 23.422 31.166 31.164 31.166 81.878 0 113.042-24.454 24.452-131.822 98.118-181.606 98.118z m125.074-218.594c-17.082 0-33.14 6.652-45.218 18.738-13.958 13.958-43.382 55.178-64.946 94.306-29.392 53.338-32.11 79.958-25.498 86.562 2 1.998 5.558 2.998 10.586 2.998 41.962 0 144.708-67.826 170.3-93.434 24.936-24.934 24.936-65.5 0-90.434-12.076-12.082-28.134-18.736-45.224-18.736z"  /><path d="M832.05 911.714c-4.422 0-8.09-3.576-8.09-7.994 0-4.42 3.5-7.994 7.934-7.994h0.156a7.998 7.998 0 0 1 7.992 7.994 7.998 7.998 0 0 1-7.992 7.994z"  /><path d="M176.508 16.354c-4.41 0-8.072-3.576-8.072-7.994S171.934 0.366 176.352 0.366h0.156c4.42 0 7.996 3.576 7.996 7.994s-3.576 7.994-7.996 7.994z"  /><path d="M480.292 48.332c-4.41 0-8.072-3.576-8.072-7.996 0-4.418 3.498-7.994 7.916-7.994h0.156a7.988 7.988 0 0 1 7.994 7.994 7.99 7.99 0 0 1-7.994 7.996z"  /><path d="M32.612 208.216c-4.412 0-8.072-3.576-8.072-7.994 0-4.418 3.498-7.994 7.916-7.994h0.156a7.99 7.99 0 0 1 7.994 7.994 7.99 7.99 0 0 1-7.994 7.994z"  /><path d="M144.532 671.886c-4.412 0-8.072-3.576-8.072-7.996 0-4.418 3.498-7.994 7.916-7.994h0.156a7.99 7.99 0 0 1 7.994 7.994 7.99 7.99 0 0 1-7.994 7.996z"  /><path d="M543.41 1007.646c-4.418 0-8.086-3.576-8.086-7.994 0-4.42 3.496-7.994 7.93-7.994h0.156a8 8 0 0 1 7.996 7.994 8 8 0 0 1-7.996 7.994z"  /><path d="M927.98 1023.634c-4.418 0-8.086-3.576-8.086-7.994s3.496-7.994 7.93-7.994h0.156c4.402 0 7.996 3.576 7.996 7.994s-3.594 7.994-7.996 7.994z"  /><path d="M688.152 719.852c-4.418 0-8.09-3.576-8.09-7.994 0-4.42 3.5-7.994 7.934-7.994h0.156a8 8 0 0 1 7.996 7.994 8.002 8.002 0 0 1-7.996 7.994z"  /><path d="M959.958 671.886c-4.418 0-8.086-3.576-8.086-7.996 0-4.418 3.496-7.994 7.93-7.994h0.156a8.002 8.002 0 0 1 7.996 7.994 8.002 8.002 0 0 1-7.996 7.996z"  /><path d="M800.074 863.75c-4.422 0-8.09-3.576-8.09-7.996 0-4.418 3.496-7.994 7.934-7.994h0.156a8 8 0 0 1 7.992 7.994 8 8 0 0 1-7.992 7.996z"  /><path d="M839.558 943.692c-44.078 0-79.942-35.866-79.942-79.942 0-44.078 35.864-79.946 79.942-79.946s79.946 35.868 79.946 79.946c0 44.076-35.868 79.942-79.946 79.942z m0-143.898c-35.27 0-63.954 28.698-63.954 63.956 0 35.254 28.684 63.954 63.954 63.954 35.274 0 63.958-28.7 63.958-63.954 0-35.258-28.684-63.956-63.958-63.956z"  /><path d="M863.542 863.75c-13.226 0-23.984-10.76-23.984-23.984s10.758-23.982 23.984-23.982 23.984 10.758 23.984 23.982-10.756 23.984-23.984 23.984z m0-31.978c-4.418 0-7.996 3.592-7.996 7.994s3.578 7.994 7.996 7.994 7.992-3.592 7.992-7.994a8 8 0 0 0-7.992-7.994z"  /><path d="M639.704 927.704a7.992 7.992 0 0 1-7.996-7.994v-63.956c0-4.418 3.578-7.994 7.996-7.994s7.992 3.576 7.992 7.994v63.956a7.99 7.99 0 0 1-7.992 7.994z"  /><path d="M655.692 895.726h-31.976a7.992 7.992 0 0 1-7.996-7.994 7.99 7.99 0 0 1 7.996-7.994h31.976a7.988 7.988 0 0 1 7.992 7.994 7.988 7.988 0 0 1-7.992 7.994z"  /><path d="M367.896 991.658a7.99 7.99 0 0 1-7.994-7.994v-63.956a7.988 7.988 0 0 1 7.994-7.994 7.99 7.99 0 0 1 7.996 7.994v63.956a7.992 7.992 0 0 1-7.996 7.994z"  /><path d="M383.884 959.68h-31.978a7.988 7.988 0 0 1-7.994-7.994 7.99 7.99 0 0 1 7.994-7.994h31.978a7.99 7.99 0 0 1 7.994 7.994 7.988 7.988 0 0 1-7.994 7.994z"  /><path d="M367.896 144.262a7.988 7.988 0 0 1-7.994-7.994V72.314a7.99 7.99 0 0 1 7.994-7.996 7.99 7.99 0 0 1 7.996 7.996v63.954a7.99 7.99 0 0 1-7.996 7.994z"  /><path d="M383.884 112.286h-31.978a7.99 7.99 0 0 1-7.994-7.994 7.99 7.99 0 0 1 7.994-7.994h31.978a7.99 7.99 0 0 1 7.994 7.994 7.99 7.99 0 0 1-7.994 7.994z"  /><path d="M80.102 512a7.99 7.99 0 0 1-7.994-7.994v-63.956c0-4.418 3.576-7.994 7.994-7.994s7.994 3.576 7.994 7.994v63.956A7.99 7.99 0 0 1 80.102 512z"  /><path d="M96.09 480.024H64.114c-4.418 0-7.996-3.576-7.996-7.996s3.576-7.994 7.996-7.994h31.978c4.418 0 7.994 3.576 7.994 7.994s-3.578 7.996-7.996 7.996z"  /><path d="M224 336.124c-14.95 0-29.002-5.824-39.566-16.394-10.572-10.57-16.394-24.624-16.394-39.572 0-14.944 5.824-28.996 16.394-39.558 21.126-21.14 58.004-21.14 79.13 0 10.572 10.562 16.394 24.616 16.394 39.558 0 14.95-5.824 29.002-16.394 39.572-10.564 10.57-24.614 16.394-39.564 16.394z m0-95.93a39.724 39.724 0 0 0-28.262 11.71 39.7 39.7 0 0 0-11.71 28.254c0 10.68 4.162 20.718 11.71 28.268 15.1 15.1 41.424 15.1 56.522 0a39.712 39.712 0 0 0 11.71-28.268c0-10.672-4.16-20.706-11.71-28.254a39.72 39.72 0 0 0-28.26-11.71z"  /><path d="M182.692 334.72c-3.716 0-6.988-1.102-9.572-3.686a7.992 7.992 0 0 1 0-11.304 8.008 8.008 0 0 1 10.188-0.936c5.122-0.296 23.302-9.946 46.342-32.976 23.03-23.038 32.68-41.228 32.976-46.35a8.002 8.002 0 0 1 0.936-10.188 7.992 7.992 0 0 1 11.304 0c16.138 16.136-25.418 59.348-33.912 67.842-7.134 7.136-38.76 37.598-58.262 37.598z"  /></svg>