<?xml version="1.0" standalone="no"?><!DOCTYPE svg PUBLIC "-//W3C//DTD SVG 1.1//EN" "http://www.w3.org/Graphics/SVG/1.1/DTD/svg11.dtd"><svg class="icon" width="64px" height="64.00px" viewBox="0 0 1024 1024" version="1.1" xmlns="http://www.w3.org/2000/svg"><path d="M1024 512C1024 229.230208 794.769793 0 512 0 229.230208 0 0 229.230208 0 512 0 794.769793 229.230208 1024 512 1024 629.410831 1024 740.826187 984.331047 830.768465 912.686662 841.557579 904.09249 843.336929 888.379235 834.742759 877.590121 826.148587 866.80101 810.435332 865.021657 799.646218 873.615827 718.470037 938.277496 618.00178 974.04878 512 974.04878 256.817504 974.04878 49.95122 767.182496 49.95122 512 49.95122 256.817504 256.817504 49.95122 512 49.95122 767.182496 49.95122 974.04878 256.817504 974.04878 512 974.04878 599.492833 949.714859 683.336764 904.470808 755.960692 897.17711 767.668241 900.755244 783.071796 912.462793 790.365494 924.170342 797.659191 939.573897 794.081058 946.867595 782.373508 997.013826 701.880795 1024 608.89838 1024 512Z"  /><path d="M686.433148 700.290665C696.098009 710.132167 711.911042 710.275364 721.752546 700.610503 731.594048 690.945638 731.737245 675.132606 722.072384 665.291104L372.076769 308.898759C362.411907 299.057254 346.598875 298.914059 336.757373 308.578921 326.915869 318.243783 326.772674 334.056815 336.437535 343.898319L686.433148 700.290665Z"  /><path d="M326.903226 665.291104C317.238364 675.132606 317.381562 690.945638 327.223064 700.610503 337.064568 710.275364 352.8776 710.132167 362.542462 700.290665L712.538075 343.898319C722.202936 334.056815 722.059741 318.243783 712.218237 308.578921 702.376735 298.914059 686.563703 299.057254 676.898841 308.898759L326.903226 665.291104Z"  /></svg>