<?xml version="1.0" standalone="no"?><!DOCTYPE svg PUBLIC "-//W3C//DTD SVG 1.1//EN" "http://www.w3.org/Graphics/SVG/1.1/DTD/svg11.dtd"><svg class="icon" width="64px" height="64.00px" viewBox="0 0 1024 1024" version="1.1" xmlns="http://www.w3.org/2000/svg"><path d="M512 64C264.577 64 64 264.575 64 512c0 247.423 200.577 448 448 448s448-200.577 448-448c0-247.425-200.577-448-448-448z m167.672 559.729c15.411 15.457 15.411 40.455 0 55.912-15.411 15.411-40.403 15.411-55.863 0L512.033 567.82 400.257 679.642c-15.455 15.411-40.452 15.411-55.863 0-15.455-15.457-15.455-40.455 0-55.912L456.12 512 344.394 400.268c-15.455-15.455-15.455-40.455 0-55.91 15.411-15.411 40.409-15.411 55.863 0l111.776 111.82 111.776-111.82c15.46-15.411 40.452-15.411 55.863 0 15.411 15.455 15.411 40.455 0 55.91L567.945 512l111.727 111.729z" /></svg>