<?xml version="1.0" standalone="no"?><!DOCTYPE svg PUBLIC "-//W3C//DTD SVG 1.1//EN" "http://www.w3.org/Graphics/SVG/1.1/DTD/svg11.dtd"><svg class="icon" width="64px" height="64.00px" viewBox="0 0 1024 1024" version="1.1" xmlns="http://www.w3.org/2000/svg"><path d="M548.213783 396.446217 370.811374 233.326093l-1.203408-1.088798-0.408299 0-0.611937-0.733711-1.182942-0.729617c-0.795109-0.762363-2.01489-1.308809-3.013637-1.851161l-0.203638-0.191358-0.795109-0.355087-1.203408-0.375553c-0.998747-0.558725-2.222621-0.934279-3.221368-0.934279l-0.795109-0.35918-2.202155-0.37146-2.606361-0.35918-1.814322 0-0.795109 0-0.591471 0-1.594311 0-2.606361 0.35918-2.610454 0.37146-0.407276 0.35918c-1.203408 0-2.405793 0.375553-3.625574 0.934279l-0.795109 0.375553-1.182942 0.355087 0 0.191358c-1.019213 0.542352-2.018983 1.088798-3.241834 1.851161l-0.795109 0.729617-0.791016 0.733711-0.391926 0-1.219781 1.088798L153.501046 396.446217c-11.010775 10.117428-11.010775 26.51591 0 36.653805 11.027148 10.326183 28.860305 10.326183 39.887452 0l129.317251-118.67282 0 456.662671c0 14.375405 12.617365 26.160823 28.048823 26.160823 15.651468 0 28.27395-11.785417 28.27395-26.160823L379.028523 314.428226l129.516796 118.67282c10.599406 10.326183 28.844955 10.326183 39.667441 0C559.056736 422.962128 559.056736 406.564669 548.213783 396.446217z"  /><path d="M674.105005 225.977731c-15.635095 0-28.457122 11.410887-28.457122 25.786293l0 456.666764L516.538363 589.752852c-10.807137-9.946536-28.864398-9.946536-39.876196 0-11.027148 10.141988-11.027148 26.54047 0 36.657898l177.385013 163.120125 1.219781 1.084705 0.407276 0.379647 0.795109 0.729617 0.815575 0.391926c0.978281 0.729617 2.181689 1.460258 3.196809 1.818415l1.207501 0.558725 0.795109 0.379647c1.199315 0.542352 2.4017 0.729617 3.609201 1.27197l0.791016 0 2.222621 0.750083 2.610454 0 1.590218 0.355087 0.203638 0 0.591471 0 0.423649 0 0.391926 0 1.590218-0.355087 2.405793 0 2.422166-0.750083 0.591471 0c1.187035-0.542352 2.202155-0.729617 3.405563-1.27197l1.203408-0.379647 0.998747-0.558725c1.203408-0.35918 2.218528-1.088798 3.405563-1.818415l0.607844-0.391926 0.815575-0.729617 0.387833-0.379647 1.407046-1.084705 177.197748-163.120125c10.843976-10.117428 10.843976-26.51591 0-36.657898-11.010775-9.946536-28.860305-9.946536-39.891546 0L702.373839 708.429765 702.373839 251.764024C702.373839 237.388619 689.348174 225.977731 674.105005 225.977731z"  /><path d="M63.408145 63.408145l897.183709 0 0 40.780799-897.183709 0 0-40.780799Z"  /><path d="M63.408145 919.811056l897.183709 0 0 40.780799-897.183709 0 0-40.780799Z"  /></svg>