<?xml version="1.0" standalone="no"?><!DOCTYPE svg PUBLIC "-//W3C//DTD SVG 1.1//EN" "http://www.w3.org/Graphics/SVG/1.1/DTD/svg11.dtd"><svg class="icon" width="64px" height="64.00px" viewBox="0 0 1024 1024" version="1.1" xmlns="http://www.w3.org/2000/svg"><path d="M470.711 735.226c-9.182 0-16.591-2.914-22.038-8.677-5.382-5.635-8.106-13.489-8.106-23.367 0-29.447 17.984-101.45 53.573-214.044 1.583-5.066 2.343-9.563 2.343-13.425 0-3.293-1.14-3.926-3.293-3.926-4.18 0-9.183 1.71-14.629 5.129-5.763 3.609-19.252 15.451-39.896 35.21l-1.9 1.774-20.58-15.389 2.343-2.533c23.873-25.774 46.038-44.329 65.796-55.222 20.201-11.208 37.11-16.591 51.547-16.591 8.233 0 14.693 1.9 19.378 5.573 4.813 3.927 7.156 9.183 7.156 15.643 0 7.155-7.599 35.589-23.304 86.693-24.824 81.881-37.489 131.783-37.489 148.438 0 2.66 0.633 4.687 1.836 6.269 1.709 2.153 2.66 2.153 2.913 2.153 3.863 0 16.212-5.51 56.487-42.366l2.090-1.963 18.365 17.542-2.407 2.153c-33.12 30.459-56.678 49.458-71.938 57.944-15.578 8.676-28.055 12.982-38.25 12.982zM566.651 364.385c-7.979 0-14.691-2.786-20.011-8.232-5.319-5.51-8.042-12.665-8.042-21.341 0-11.209 3.8-20.898 11.209-28.813 7.536-7.916 16.656-11.969 26.977-11.969 8.233 0 14.945 2.722 20.265 8.106 5.382 5.256 8.042 12.158 8.042 20.454 0 10.956-3.926 20.834-11.716 29.13-7.789 8.423-16.844 12.665-26.723 12.665z"  /><path d="M922.801 340.448c-22.48-53.258-54.778-101.070-95.876-142.106s-88.911-73.331-142.233-95.876c-55.031-23.304-113.607-35.209-174.085-35.209-60.35 0-118.99 11.842-174.085 35.209-53.258 22.544-101.133 54.778-142.169 95.876-41.098 41.036-73.332 88.849-95.813 142.106-23.367 55.283-35.209 113.798-35.209 174.212 0 60.351 11.842 118.927 35.209 174.149 22.48 53.257 54.714 101.069 95.876 142.168 40.973 41.036 88.848 73.332 142.169 95.876 55.094 23.304 113.735 35.147 174.085 35.147 112.088 0 219.237-41.543 301.816-117.155 7.282-6.649 7.726-17.985 1.076-25.33-6.587-7.22-17.858-7.6-25.141-1.013-75.929 69.469-174.592 107.655-277.688 107.655-55.538 0-109.493-10.829-160.217-32.361-48.888-20.645-93.027-50.344-130.706-88.214-37.869-37.807-67.507-81.755-88.214-130.77-21.532-50.661-32.487-104.617-32.487-160.153 0-55.6 10.956-109.492 32.487-160.153 20.518-49.014 50.218-93.027 88.087-130.896 37.743-37.87 81.817-67.444 130.706-88.215 50.787-21.468 104.678-32.36 160.216-32.36 55.601 0 109.493 10.891 160.218 32.36 48.952 20.771 93.090 50.345 130.77 88.214 37.807 37.869 67.443 81.818 88.214 130.897 21.532 50.662 32.36 104.553 32.36 160.154 0 73.395-19.505 145.334-56.424 208.217-5.129 8.549-2.216 19.505 6.333 24.507 8.486 4.94 19.442 2.153 24.444-6.396 40.212-68.393 61.491-146.665 61.491-226.393 0-60.35-11.843-118.864-35.21-174.148zM922.801 340.448z"  /></svg>