<?xml version="1.0" standalone="no"?><!DOCTYPE svg PUBLIC "-//W3C//DTD SVG 1.1//EN" "http://www.w3.org/Graphics/SVG/1.1/DTD/svg11.dtd"><svg class="icon" width="64px" height="64.00px" viewBox="0 0 1024 1024" version="1.1" xmlns="http://www.w3.org/2000/svg"><path d="M570.344 662.906c-24.906 26.5-41.094 37.562-52.188 37.562-7.718 0-10.344-6.844-8.624-22.282 5.188-40.124 35.062-169.156 43.562-215.25 8.532-39.438 6-59.906-5.124-59.906-21.282 0-73.468 35.032-107.656 70.032-1.75 2.688-5.124 17.156-3.376 22.25 0 1.75 2.532 2.624 2.532 2.624 20.532-16.25 36.782-25.688 46.218-25.688 4.218 0 5.876 6.812 3.376 18.812-10.25 51.25-27.344 130.812-40.156 196.562-11.968 57.344-4.344 80.376 13.624 80.376s67.532-23.968 107.812-77.812c1.624-4.188 3.282-20.376 2.5-24.718C572.844 663.812 570.344 662.906 570.344 662.906z"  /><path d="M562.562 256c-14.594 0-32.5 6.828-41.032 15.406-3.376 4.282-6.812 17.078-7.718 23.89 0.906 15.422 5.156 23.968 13.718 29.124 4.218 3.36 32.438 0.828 38.438-2.624 10.376-6.796 19.656-20.5 21.406-36.75 0.75-7.64-0.876-17.968-4.282-23.062C581.376 259.438 574.5 256 562.562 256z"  /><path d="M512 0C229.218 0 0 229.218 0 512s229.218 512 512 512 512-229.218 512-512S794.782 0 512 0zM512 944c-238.594 0-432-193.406-432-432S273.406 80 512 80s432 193.406 432 432S750.594 944 512 944z"  /></svg>