<?xml version="1.0" standalone="no"?><!DOCTYPE svg PUBLIC "-//W3C//DTD SVG 1.1//EN" "http://www.w3.org/Graphics/SVG/1.1/DTD/svg11.dtd"><svg class="icon" width="64px" height="64.00px" viewBox="0 0 1024 1024" version="1.1" xmlns="http://www.w3.org/2000/svg"><path d="M514.327273 0C795.461818 0 1024 229.608727 1024 512s-233.146182 512-514.327273 512C228.538182 1024 0 794.391273 0 512S228.538182 0 514.327273 0z m46.824727 253.672727c-19.456 0-33.140364 4.654545-47.988364 19.549091-14.894545 9.169455-19.456 24.110545-19.456 42.496 0 14.894545 4.561455 28.672 19.456 43.613091 14.848 9.169455 28.532364 19.502545 47.941819 19.502546 19.456 0 33.186909-4.608 48.034909-19.549091 14.894545-9.169455 19.409455-24.064 19.409454-43.566546 0-14.941091-4.561455-28.718545-19.409454-42.496-13.730909-14.894545-28.578909-19.549091-47.988364-19.549091z m19.409455 468.386909c-14.848 0-23.970909 0-28.57891-4.561454a38.446545 38.446545 0 0 1-9.122909-24.110546c0-4.608 0-14.894545 4.561455-24.110545 0-9.169455 4.561455-19.549091 4.561454-24.110546l28.57891-95.278545c4.561455-9.169455 4.561455-19.549091 4.561454-28.718545v-24.110546c0-19.502545-9.122909-37.888-23.970909-48.221091-14.894545-14.894545-33.140364-19.502545-61.719273-19.502545-14.894545 0-28.578909 4.608-47.988363 9.216a195.677091 195.677091 0 0 0-52.596364 19.502545l-9.122909 28.672c4.561455 0 9.122909-4.561455 19.409454-4.561454 10.286545 0 14.894545-4.608 24.017455-4.608 14.848 0 23.970909 4.608 28.578909 4.608 4.561455 4.561455 9.122909 14.894545 9.122909 24.110545 0 4.561455 0 14.894545-4.561454 24.110546 0 9.169455-4.561455 19.502545-4.561455 24.110545l-28.578909 95.278545c-4.561455 9.169455-4.561455 19.502545-4.561455 28.672v24.110546c0 19.549091 9.122909 33.28 23.97091 48.221091 14.894545 14.894545 33.140364 19.549091 61.719272 19.549091 19.456 0 33.140364 0 47.988364-4.654546 14.894545-4.561455 28.578909-9.169455 52.596364-19.502545l9.122909-28.672c-4.561455 0-9.122909 4.561455-19.409455 4.561454h-24.017454z" /></svg>