<?xml version="1.0" standalone="no"?><!DOCTYPE svg PUBLIC "-//W3C//DTD SVG 1.1//EN" "http://www.w3.org/Graphics/SVG/1.1/DTD/svg11.dtd"><svg width="200" height="200" viewBox="0 0 200 200" version="1.1" xmlns="http://www.w3.org/2000/svg" xmlns:xlink="http://www.w3.org/1999/xlink"><defs><style type="text/css"><![CDATA[
@font-face { font-family: ifont; src: url(http://at.alicdn.com/t/font_1442373896_4754455.eot?#iefix) format(embedded-opentype), url(http://at.alicdn.com/t/font_1442373896_4754455.woff) format(woff), url(http://at.alicdn.com/t/font_1442373896_4754455.ttf) format(truetype), url(http://at.alicdn.com/t/font_1442373896_4754455.svg#ifont) format(svg); }

]]></style></defs><g class="transform-group"><g transform="scale(0.1953125, 0.1953125)"><path d="M511.573333 0.853333c-278.506667 0-505.024 222.592-511.424 499.562667C6.058667 258.730667 189.824 64.810667 415.658667 64.810667c229.546667 0 415.658667 200.426667 415.658667 447.616 0 52.970667 42.944 95.936 95.914667 95.936 52.949333 0 95.914667-42.965333 95.914667-95.936C1023.146667 229.888 794.112 0.853333 511.573333 0.853333zM511.573333 1024c278.506667 0 505.024-222.592 511.402667-499.562667-5.888 241.664-189.653333 435.626667-415.488 435.626667-229.546667 0-415.658667-200.448-415.658667-447.637333 0-52.949333-42.965333-95.914667-95.936-95.914667C42.965333 416.512 0 459.456 0 512.426667 0 794.965333 229.034667 1024 511.573333 1024z" fill="#272636"></path></g></g></svg>