<?xml version="1.0" standalone="no"?><!DOCTYPE svg PUBLIC "-//W3C//DTD SVG 1.1//EN" "http://www.w3.org/Graphics/SVG/1.1/DTD/svg11.dtd"><svg width="200" height="200" viewBox="0 0 200 200" version="1.1" xmlns="http://www.w3.org/2000/svg" xmlns:xlink="http://www.w3.org/1999/xlink"><defs><style type="text/css"><![CDATA[
@font-face { font-family: ifont; src: url(http://at.alicdn.com/t/font_1442373896_4754455.eot?#iefix) format(embedded-opentype), url(http://at.alicdn.com/t/font_1442373896_4754455.woff) format(woff), url(http://at.alicdn.com/t/font_1442373896_4754455.ttf) format(truetype), url(http://at.alicdn.com/t/font_1442373896_4754455.svg#ifont) format(svg); }

]]></style></defs><g class="transform-group"><g transform="scale(0.1953125, 0.1953125)"><path d="M464.392726 499.090992c-17.125029-17.125029-37.788651-25.687032-61.991889-25.687032s-44.867884 8.562003-61.992913 25.687032-25.687032 37.788651-25.687032 61.991889c0 24.203238 8.562003 44.867884 25.687032 61.992913 17.125029 17.125029 37.788651 25.687032 61.992913 25.687032s44.867884-8.562003 61.991889-25.687032c17.125029-17.125029 25.687032-37.788651 25.687032-61.992913C490.079758 536.879644 481.517755 516.216022 464.392726 499.090992zM740.103138 705.617719c-8.448416-8.676613-18.723434-13.014408-30.825053-13.014408-11.873422 0-22.148439 4.337795-30.825053 13.014408-8.676613 8.448416-13.014408 18.723434-13.014408 30.825053 0 12.101619 4.338818 22.491247 13.014408 31.166837 8.448416 8.448416 18.723434 12.672624 30.825053 12.672624 12.101619 0 22.491247-4.337795 31.166837-13.014408 8.448416-8.448416 12.672624-18.723434 12.672624-30.825053C753.11857 724.341153 748.779751 714.066135 740.103138 705.617719zM740.103138 354.899986c-8.448416-8.676613-18.723434-13.014408-30.825053-13.014408-11.873422 0-22.148439 4.337795-30.825053 13.014408-8.676613 8.448416-13.014408 18.723434-13.014408 30.825053 0 12.101619 4.338818 22.491247 13.014408 31.166837 8.448416 8.448416 18.723434 12.672624 30.825053 12.672624 12.101619 0 22.491247-4.337795 31.166837-13.014408 8.448416-8.448416 12.672624-18.723434 12.672624-30.825053C753.11857 373.623419 748.779751 363.348402 740.103138 354.899986zM621.599164 593.278141c0 5.936199-2.625804 9.361205-7.877411 10.275018l-53.087079 8.220219c-2.512217 7.992021-6.16542 16.668635-10.960633 26.02984 7.763824 10.960633 18.038842 24.089651 30.825053 39.387056 1.598404 2.282996 2.397606 4.567016 2.397606 6.850012 0 2.740414-0.799202 4.9088-2.397606 6.507204-5.251607 6.850012-14.042831 16.554024-26.372647 29.112038-14.842033 14.612813-24.431435 21.919219-28.770254 21.919219-2.282996 0-4.680603-0.799202-7.192819-2.397606l-39.387056-30.825053c-8.448416 4.337795-17.238616 7.877411-26.372647 10.616802-2.512217 24.659633-5.13802 42.355667-7.877411 53.087079-1.598404 5.479805-5.02341 8.220219-10.275018 8.220219l-63.704904 0c-5.936199 0-9.361205-2.854001-10.275018-8.563026l-7.877411-52.402487c-7.763824-2.282996-16.325827-5.822612-25.687032-10.616802l-40.415478 30.482245c-1.598404 1.598404-3.8814 2.397606-6.850012 2.397606-2.512217 0-4.9088-0.912789-7.192819-2.739391C239.370763 708.470697 222.931349 690.203658 222.931349 684.038238c0-2.054799 0.799202-4.224208 2.397606-6.507204 2.282996-3.196809 7.306406-9.704013 15.07023-19.522636 6.393617-7.992021 11.417027-14.499226 15.07023-19.522636-5.251607-10.04682-9.247618-19.408025-11.987009-28.084639l-52.05968-8.220219c-5.479805-0.684592-8.220219-3.996011-8.220219-9.93221L183.202509 528.888645c0-5.936199 2.625804-9.361205 7.877411-10.275018l53.087079-8.220219c2.512217-7.992021 6.16542-16.668635 10.959609-26.02984-7.763824-10.959609-18.038842-24.088628-30.825053-39.387056-1.598404-2.512217-2.397606-4.795213-2.397606-6.850012 0-2.740414 0.799202-5.02341 2.397606-6.850012 5.02341-6.850012 13.81361-16.440437 26.372647-28.770254 14.842033-14.612813 24.431435-21.919219 28.770254-21.919219 2.512217 0 4.9088 0.799202 7.192819 2.397606l39.387056 30.825053c7.763824-4.110621 16.554024-7.763824 26.372647-10.959609 2.512217-24.659633 5.13802-42.241057 7.877411-52.744271 1.598404-5.479805 5.02341-8.220219 10.275018-8.220219l63.704904 0c5.936199 0 9.361205 2.854001 10.275018 8.563026l7.877411 52.402487c7.763824 2.282996 16.325827 5.822612 25.687032 10.616802l40.415478-30.482245c1.826602-1.598404 4.109598-2.397606 6.850012-2.397606 2.512217 0 4.9088 0.912789 7.192819 2.739391 32.879851 30.368658 49.320289 48.634674 49.320289 54.800094 0 1.826602-0.799202 3.996011-2.397606 6.507204l-15.07023 19.521612c-6.393617 7.992021-11.302417 14.499226-14.727423 19.522636 5.251607 10.960633 9.133008 20.321838 11.645225 28.084639l52.05968 7.877411c5.479805 1.14201 8.220219 4.567016 8.220219 10.275018L621.599164 593.278141 621.599164 593.278141zM840.797491 760.416789c0 3.653203-17.010419 7.192819-51.03228 10.616802-2.739391 6.16542-6.16542 12.101619-10.275018 17.809621 11.645225 25.801642 17.467837 41.556465 17.467837 47.264467 0 0.913812-0.456395 1.713015-1.370207 2.397606-27.856441 16.211217-42.012859 24.316825-42.469254 24.316825-4.795213 0-15.98302-13.129019-33.564443-39.387056-4.567016 0.456395-7.992021 0.684592-10.275018 0.684592s-5.708002-0.228197-10.275018-0.684592c-17.581424 26.258037-28.770254 39.387056-33.564443 39.387056-0.456395 0-14.612813-8.105608-42.469254-24.316825-0.913812-0.684592-1.370207-1.483794-1.370207-2.397606 0-5.708002 5.822612-21.462824 17.467837-47.264467-4.109598-5.708002-7.534604-11.645225-10.275018-17.809621-34.021861-3.425006-51.03228-6.963599-51.03228-10.616802l0-47.950082c0-3.653203 17.010419-7.192819 51.03228-10.616802 2.968611-6.621814 6.393617-12.558014 10.275018-17.809621-11.645225-25.801642-17.467837-41.556465-17.467837-47.264467 0-0.913812 0.456395-1.713015 1.370207-2.397606 0.684592-0.228197 8.105608-4.452405 22.262026-12.672624 12.786211-7.534604 19.522636-11.302417 20.207227-11.302417 5.02341 0 16.211217 13.015432 33.564443 39.045271 4.567016-0.456395 7.992021-0.684592 10.275018-0.684592s5.708002 0.228197 10.275018 0.684592c11.645225-16.211217 22.148439-28.998451 31.509644-38.359656l2.054799-0.684592c0.913812 0 15.07023 7.992021 42.469254 23.975041 0.913812 0.684592 1.370207 1.483794 1.370207 2.397606 0 5.708002-5.822612 21.462824-17.467837 47.264467 3.8814 5.251607 7.306406 11.187807 10.275018 17.809621 34.021861 3.425006 51.03228 6.963599 51.03228 10.616802L840.797491 760.416789zM840.797491 409.699056c0 3.653203-17.010419 7.192819-51.03228 10.616802-2.739391 6.16542-6.16542 12.101619-10.275018 17.809621 11.645225 25.801642 17.467837 41.556465 17.467837 47.264467 0 0.913812-0.456395 1.713015-1.370207 2.397606-27.856441 16.211217-42.012859 24.316825-42.469254 24.316825-4.795213 0-15.98302-13.129019-33.564443-39.387056-4.567016 0.456395-7.992021 0.684592-10.275018 0.684592s-5.708002-0.228197-10.275018-0.684592c-17.581424 26.258037-28.770254 39.387056-33.564443 39.387056-0.456395 0-14.612813-8.105608-42.469254-24.316825-0.913812-0.684592-1.370207-1.483794-1.370207-2.397606 0-5.708002 5.822612-21.462824 17.467837-47.264467-4.109598-5.708002-7.534604-11.645225-10.275018-17.809621-34.021861-3.425006-51.03228-6.963599-51.03228-10.616802l0-47.950082c0-3.653203 17.010419-7.192819 51.03228-10.616802 2.968611-6.621814 6.393617-12.558014 10.275018-17.809621-11.645225-25.801642-17.467837-41.556465-17.467837-47.264467 0-0.913812 0.456395-1.713015 1.370207-2.397606 0.684592-0.228197 8.105608-4.452405 22.262026-12.672624 12.786211-7.534604 19.522636-11.302417 20.207227-11.302417 5.02341 0 16.211217 13.015432 33.564443 39.045271 4.567016-0.456395 7.992021-0.684592 10.275018-0.684592s5.708002 0.228197 10.275018 0.684592c11.645225-16.211217 22.148439-28.998451 31.509644-38.359656l2.054799-0.684592c0.913812 0 15.07023 7.992021 42.469254 23.975041 0.913812 0.684592 1.370207 1.483794 1.370207 2.397606 0 5.708002-5.822612 21.462824-17.467837 47.264467 3.8814 5.251607 7.306406 11.187807 10.275018 17.809621 34.021861 3.425006 51.03228 6.963599 51.03228 10.616802L840.797491 409.699056 840.797491 409.699056z" fill="#272636"></path></g></g></svg>