<?xml version="1.0" standalone="no"?><!DOCTYPE svg PUBLIC "-//W3C//DTD SVG 1.1//EN" "http://www.w3.org/Graphics/SVG/1.1/DTD/svg11.dtd"><svg width="200" height="200" viewBox="0 0 200 200" version="1.1" xmlns="http://www.w3.org/2000/svg" xmlns:xlink="http://www.w3.org/1999/xlink"><defs><style type="text/css"><![CDATA[
@font-face { font-family: ifont; src: url(http://at.alicdn.com/t/font_1442373896_4754455.eot?#iefix) format(embedded-opentype), url(http://at.alicdn.com/t/font_1442373896_4754455.woff) format(woff), url(http://at.alicdn.com/t/font_1442373896_4754455.ttf) format(truetype), url(http://at.alicdn.com/t/font_1442373896_4754455.svg#ifont) format(svg); }

]]></style></defs><g class="transform-group"><g transform="scale(0.1953125, 0.1953125)"><path d="M783.936 64 729.536 182.336 607.936 201.344 695.936 293.44 675.136 423.552 783.936 362.112 892.8 423.552 872 293.44 960 201.344 838.336 182.336 783.936 64 783.936 64ZM192.050216 532.224 152.379757 618.1934 64 632.052952 127.974892 699.040794 112.910161 793.546874 192.050216 748.854835 271.089839 793.546874 256.025108 699.040794 320 632.052952 231.620243 618.1934 192.050216 532.224 192.050216 532.224ZM391.488 792.64 366.336 847.424 309.952 856.256 350.72 898.944 341.12 959.168 391.488 930.752 441.92 959.168 432.32 898.944 473.088 856.256 416.768 847.424 391.488 792.64 391.488 792.64ZM175.872 266.24 259.904 176 343.872 266.24 259.904 356.352 175.872 266.24 175.872 266.24ZM259.904 110.912 111.488 270.144 259.904 429.312 754.176 960 902.592 800.768 259.904 110.912 259.904 110.912Z" fill="#272636"></path></g></g></svg>