<?xml version="1.0" standalone="no"?><!DOCTYPE svg PUBLIC "-//W3C//DTD SVG 1.1//EN" "http://www.w3.org/Graphics/SVG/1.1/DTD/svg11.dtd"><svg class="icon" width="64px" height="64.00px" viewBox="0 0 1024 1024" version="1.1" xmlns="http://www.w3.org/2000/svg"><path d="M512 1024A512 512 0 1 1 512 0a512 512 0 0 1 0 1024zM321.755429 531.821714a55.588571 55.588571 0 0 0-83.529143-3.145143 68.900571 68.900571 0 0 0-2.925715 91.282286l140.141715 164.059429a55.734857 55.734857 0 0 0 86.308571 0l326.948572-382.756572a68.900571 68.900571 0 0 0-2.925715-91.282285 55.588571 55.588571 0 0 0-83.529143 3.145142L418.596571 645.266286 321.828571 531.894857z" /></svg>