<?xml version="1.0" standalone="no"?><!DOCTYPE svg PUBLIC "-//W3C//DTD SVG 1.1//EN" "http://www.w3.org/Graphics/SVG/1.1/DTD/svg11.dtd"><svg class="icon" width="64px" height="64.00px" viewBox="0 0 1024 1024" version="1.1" xmlns="http://www.w3.org/2000/svg"><path d="M464.248 677.488c9.967 9.161 25.418 8.714 34.838-1.009l299.819-309.441c9.598-9.906 9.349-25.718-0.558-35.317-9.906-9.598-25.718-9.348-35.316 0.558L463.21 641.72l34.84-1.008L316.608 473.94c-10.156-9.334-25.955-8.668-35.29 1.487-9.334 10.156-8.668 25.955 1.487 35.29l181.442 166.77z"  /><path d="M1024 512C1024 229.23 794.77 0 512 0S0 229.23 0 512s229.23 512 512 512c117.41 0 228.826-39.669 318.768-111.313 10.79-8.595 12.569-24.308 3.975-35.097-8.594-10.789-24.308-12.568-35.097-3.974C718.47 938.277 618.002 974.049 512 974.049 256.818 974.049 49.951 767.182 49.951 512S256.818 49.951 512 49.951 974.049 256.818 974.049 512c0 87.493-24.334 171.337-69.578 243.96-7.294 11.708-3.716 27.112 7.992 34.405 11.707 7.294 27.11 3.716 34.405-7.991C997.014 701.88 1024 608.898 1024 512z"  /></svg>