<?xml version="1.0" standalone="no"?><!DOCTYPE svg PUBLIC "-//W3C//DTD SVG 1.1//EN" "http://www.w3.org/Graphics/SVG/1.1/DTD/svg11.dtd"><svg width="200" height="200" viewBox="0 0 200 200" version="1.1" xmlns="http://www.w3.org/2000/svg" xmlns:xlink="http://www.w3.org/1999/xlink"><defs><style type="text/css"><![CDATA[
@font-face { font-family: ifont; src: url(http://at.alicdn.com/t/font_1442373896_4754455.eot?#iefix) format(embedded-opentype), url(http://at.alicdn.com/t/font_1442373896_4754455.woff) format(woff), url(http://at.alicdn.com/t/font_1442373896_4754455.ttf) format(truetype), url(http://at.alicdn.com/t/font_1442373896_4754455.svg#ifont) format(svg); }

]]></style></defs><g class="transform-group"><g transform="scale(0.1953125, 0.1953125)"><path d="M345.892571 153.209905C127.707429 153.209905 0 206.140952 0 271.384381l0 70.997333c0 65.194667 127.683048 118.174476 345.86819 118.174476 218.38019 0 370.639238-52.955429 370.639238-118.174476l0-70.997333C716.53181 206.140952 564.272762 153.209905 345.892571 153.209905L345.892571 153.209905zM300.81219 755.614476c-149.820952-5.90019-237.32419-41.813333-283.306667-90.038857C5.778286 677.912381 0 690.95619 0 704.512l0 104.057905c0 71.753143 127.512381 129.950476 345.6 129.950476 21.845333 0 43.081143-0.853333 64.024381-1.852952C353.54819 894.244571 313.563429 829.952 300.81219 755.614476L300.81219 755.614476zM341.723429 521.094095c-4.583619 0-8.850286 0.097524-13.55581 0.097524-168.423619 0-263.509333-33.694476-311.369143-80.018286-11.190857 10.873905-16.725333 22.406095-16.725333 34.230857l0 91.37981c0 58.197333 103.326476 106.154667 282.404571 113.273905C282.672762 619.617524 304.88381 564.248381 341.723429 521.094095L341.723429 521.094095zM1007.299048 372.321524c-47.88419 48.249905-142.969905 83.114667-311.466667 83.114667-4.583619 0-8.923429-0.073143-13.458286-0.073143 0.877714 1.121524 1.80419 2.29181 2.535619 3.34019 72.240762 22.893714 129.145905 80.262095 152.161524 152.917333C956.806095 593.286095 1024 551.619048 1024 502.930286l0-94.915048C1024 395.654095 1018.489905 383.585524 1007.299048 372.321524L1007.299048 372.321524zM1006.470095 597.820952c-32.768 30.427429-86.869333 55.369143-169.20381 69.193143 0.975238 8.338286 1.536 16.847238 1.536 25.526857 0 54.345143-20.333714 104.106667-54.101333 143.433143C937.398857 821.808762 1024 777.532952 1024 725.040762l0-92.623238C1024 620.422095 1018.319238 608.719238 1006.470095 597.820952L1006.470095 597.820952zM680.838095 85.479619c-132.754286 0-240.932571 19.943619-304.786286 50.492952 228.571429 5.046857 385.26781 63.292952 385.26781 134.363429l0 80.822857c0 14.262857-6.436571 28.086857-18.432 41.081905C921.429333 382.976 1024 334.189714 1024 275.139048L1024 204.068571C1024 138.556952 897.414095 85.479619 680.838095 85.479619L680.838095 85.479619zM563.273143 494.445714c-122.294857 0-221.525333 99.401143-221.525333 222.012952s99.254857 222.037333 221.525333 222.037333c122.368 0 221.622857-99.425524 221.622857-222.037333S685.616762 494.445714 563.273143 494.445714L563.273143 494.445714zM546.182095 563.151238l-34.133333 102.424381L750.933333 665.575619l0.170667 33.767619-375.588571 0.341333L546.182095 563.151238 546.182095 563.151238zM580.33981 870.278095l34.133333-102.326857-238.787048 0L375.686095 733.866667 750.933333 733.866667 580.33981 870.278095 580.33981 870.278095z" fill="#272636"></path></g></g></svg>