<?xml version="1.0" standalone="no"?><!DOCTYPE svg PUBLIC "-//W3C//DTD SVG 1.1//EN" "http://www.w3.org/Graphics/SVG/1.1/DTD/svg11.dtd"><svg class="icon" width="64px" height="64.00px" viewBox="0 0 1024 1024" version="1.1" xmlns="http://www.w3.org/2000/svg"><path d="M512 102.4c-108.8 0-212.48 42.24-289.28 120.32C144.64 299.52 102.4 403.2 102.4 512s42.24 212.48 120.32 289.28c76.8 76.8 180.48 120.32 289.28 120.32s212.48-42.24 289.28-120.32c76.8-76.8 120.32-180.48 120.32-289.28s-42.24-212.48-120.32-289.28C724.48 144.64 620.8 102.4 512 102.4zM765.44 765.44C697.6 833.28 608 870.4 512 870.4c-96 0-185.6-37.12-253.44-104.96C190.72 697.6 153.6 608 153.6 512s37.12-185.6 104.96-253.44C326.4 190.72 416 153.6 512 153.6c96 0 185.6 37.12 253.44 104.96C833.28 326.4 870.4 416 870.4 512S833.28 697.6 765.44 765.44z"  /><path d="M701.44 565.76 537.6 495.36 537.6 230.4c0-14.08-11.52-25.6-25.6-25.6-14.08 0-25.6 11.52-25.6 25.6l0 281.6c0 10.24 6.4 19.2 15.36 23.04l179.2 76.8c3.84 1.28 6.4 2.56 10.24 2.56 10.24 0 19.2-6.4 23.04-15.36C720.64 586.24 714.24 570.88 701.44 565.76z"  /><path d="M256 486.4l-25.6 0c-14.08 0-25.6 11.52-25.6 25.6s11.52 25.6 25.6 25.6l25.6 0c14.08 0 25.6-11.52 25.6-25.6S270.08 486.4 256 486.4z"  /><path d="M742.4 512c0 14.08 11.52 25.6 25.6 25.6l25.6 0c14.08 0 25.6-11.52 25.6-25.6s-11.52-25.6-25.6-25.6l-25.6 0C753.92 486.4 742.4 497.92 742.4 512z"  /><path d="M512 742.4c-14.08 0-25.6 11.52-25.6 25.6l0 25.6c0 14.08 11.52 25.6 25.6 25.6 14.08 0 25.6-11.52 25.6-25.6l0-25.6C537.6 753.92 526.08 742.4 512 742.4z"  /></svg>