<?xml version="1.0" standalone="no"?><!DOCTYPE svg PUBLIC "-//W3C//DTD SVG 1.1//EN" "http://www.w3.org/Graphics/SVG/1.1/DTD/svg11.dtd"><svg class="icon" width="64px" height="64.00px" viewBox="0 0 1024 1024" version="1.1" xmlns="http://www.w3.org/2000/svg"><path d="M619.059318 145.06798c-106.690928-28.577872-218.166835-13.927197-313.871547 41.318034-95.665827 55.243185-164.103522 144.434553-192.700837 251.15311-59.048861 220.287125 72.157413 447.5225 292.463981 506.570337 35.602869 9.552563 71.650877 14.257725 107.457384 14.257725 74.982762 0 148.856259-20.699438 215.07645-61.130266 9.733689-5.958712 12.822027-18.680455 6.867408-28.434609-5.959735-9.732665-18.682501-12.82305-28.434609-6.865361-88.053452 53.778834-191.144388 68.823482-290.261826 42.227754-198.275809-53.132104-316.352041-257.667477-263.221983-455.921797 25.727964-96.04445 87.324858-176.319751 173.436074-226.041176 86.131683-49.728588 186.438203-62.906725 282.485723-37.188994 96.045473 25.738198 176.319751 87.334068 226.041176 173.442214 49.700959 86.113263 62.906725 186.439226 37.178761 282.487769-9.106402 33.927717-23.204491 66.706261-41.924855 97.41875-5.937223 9.755178-2.846838 22.476921 6.90527 28.434609 9.776667 5.91778 22.477944 2.826372 28.434609-6.907317 20.741393-34.087353 36.412304-70.497611 46.52871-108.243283C970.549647 431.337889 839.343373 204.087165 619.059318 145.06798zM532.685111 358.476441c0-11.419074-9.250688-20.678972-20.681018-20.678972-11.428284 0-20.679995 9.258874-20.679995 20.678972l0 227.474828c0 11.43033 9.250688 20.681018 20.679995 20.681018 11.43033 0 20.681018-9.249665 20.681018-20.681018L532.685111 358.476441zM511.99386 668.659993c-11.42112 0-20.679995 9.257851-20.679995 20.679995l0 41.35999c0 11.420097 9.258874 20.677948 20.679995 20.677948 11.418051 0 20.679995-9.257851 20.679995-20.677948l0-41.35999C532.673855 677.917844 523.412934 668.659993 511.99386 668.659993z" /></svg>