<?xml version="1.0" standalone="no"?><!DOCTYPE svg PUBLIC "-//W3C//DTD SVG 1.1//EN" "http://www.w3.org/Graphics/SVG/1.1/DTD/svg11.dtd"><svg class="icon" width="64px" height="64.00px" viewBox="0 0 1024 1024" version="1.1" xmlns="http://www.w3.org/2000/svg"><path d="M512 767.987209c-35.343973 0-63.996546-28.652574-63.996546-63.996547s28.652574-63.996546 63.996546-63.996546 63.996546 28.652574 63.996546 63.996546-28.652574 63.996546-63.996546 63.996547z m-19.957541-533.307282h39.915082c11.781324 0 21.331841 9.550517 21.331841 21.331841 0 0.444115-0.014326 0.887206-0.041956 1.330298l-18.666128 298.651914c-0.703011 11.243065-10.026354 20.001543-21.290909 20.001543h-2.583848c-11.264555 0-20.587897-8.758478-21.290909-20.001543l-18.666128-298.651914c-0.734734-11.758812 8.201799-21.886473 19.959587-22.621207 0.446162-0.027629 0.889253-0.040932 1.333368-0.040932z m19.957541 682.634262c223.854371 0 405.314189-181.458795 405.314189-405.314189S735.854371 106.685811 512 106.685811 106.685811 288.144606 106.685811 512s181.458795 405.314189 405.314189 405.314189zM42.689265 512c0-259.187087 210.123648-469.310735 469.310735-469.310735s469.310735 210.123648 469.310735 469.310735-210.123648 469.310735-469.310735 469.310735S42.689265 771.187087 42.689265 512z" /></svg>