<?xml version="1.0" standalone="no"?><!DOCTYPE svg PUBLIC "-//W3C//DTD SVG 1.1//EN" "http://www.w3.org/Graphics/SVG/1.1/DTD/svg11.dtd"><svg class="icon" width="64px" height="64.00px" viewBox="0 0 1024 1024" version="1.1" xmlns="http://www.w3.org/2000/svg"><path d="M512 12.84c-276.024 0-500.592 224.56-500.592 500.592S235.968 1014.024 512 1014.024s500.6-224.56 500.6-500.592S788.024 12.84 512 12.84z m-32.152 208.064h64.304c23.744 0 43.08 21.672 43.272 48.4L566.08 570.896l-0.032 0.84c0 26.912-19.408 48.808-43.264 48.808h-19.352c-23.856 0-43.272-21.888-43.272-48.808l-23.584-302.48c0.216-26.696 19.544-48.352 43.272-48.352z m-6.152 494.808a52.792 52.792 0 0 1 38.24-16.192l1.744 0.024a53.32 53.32 0 0 1 51.456 51.448 52.856 52.856 0 0 1-14.984 38.784 52.784 52.784 0 0 1-38.224 16.192l-1.752-0.024a53.28 53.28 0 0 1-51.448-51.448 52.824 52.824 0 0 1 14.968-38.784z" /></svg>