<?xml version="1.0" standalone="no"?><!DOCTYPE svg PUBLIC "-//W3C//DTD SVG 1.1//EN" "http://www.w3.org/Graphics/SVG/1.1/DTD/svg11.dtd"><svg width="200" height="200" viewBox="0 0 200 200" version="1.1" xmlns="http://www.w3.org/2000/svg" xmlns:xlink="http://www.w3.org/1999/xlink"><defs><style type="text/css"><![CDATA[
@font-face { font-family: ifont; src: url(http://at.alicdn.com/t/font_1442373896_4754455.eot?#iefix) format(embedded-opentype), url(http://at.alicdn.com/t/font_1442373896_4754455.woff) format(woff), url(http://at.alicdn.com/t/font_1442373896_4754455.ttf) format(truetype), url(http://at.alicdn.com/t/font_1442373896_4754455.svg#ifont) format(svg); }

]]></style></defs><g class="transform-group"><g transform="scale(0.1953125, 0.1953125)"><path d="M466.758098 566.564733c0 0-12.415774 24.089651-54.770418 0 0 0-21.918195-16.075117-17.524119-37.258579 0 0-31.581276-26.28669-64.72514 0.733711 0 0-33.143864 63.540152 50.113351 38.708604 0 0 8.840342 69.080332 87.38421 47.802726L467.235982 457.434244c-4.340865 0.337691-8.735965 0.675382-13.606903 1.019213C370.347305 464.296535 427.341367 548.292578 466.758098 566.564733zM64.303027 540.264741c0 171.844833 139.322116 311.166949 311.153646 311.166949 31.951713 0 62.764486-4.832052 91.778286-13.779841l0-102.175077c-9.873882-5.15644-20.88568-11.766998-31.131021-19.920702 0 0-21.204951-30.668487 0.713244-54.776557 0 0-13.870916-35.063587-79.600943-46.743604 0 0-41.640376-4.396123-55.511291-3.653203 0 0-24.857131-27.584242-28.483728-57.251935 0 0-23.375383-23.090904-62.10343-34.056654 0 0-53.3163-18.252713-19.721157-89.098247 0 0 40.924061-74.505901-3.653203-79.622432 0 0-21.893636 12.409634-29.940916 12.409634 0 0-11.568477-3.236718-9.503445-8.021697 0 0 27.054169-72.328305 89.13304-49.675376 0 0 26.28669 11.695367 30.65416 32.144094 0 0 14.4542 13.143345 61.653175-18.999726 0 0 50.113351 5.122671 14.32117 30.674627-35.790134 25.571399-43.810808 29.953196-1.455141 42.382273 0 0 51.859112 16.048511 40.184211-45.300742 0 0 24.566512-22.925129 84.446297 24.75787L467.235982 242.877633c-29.013801-8.934486-59.826574-13.765515-91.778286-13.765515C203.626165 229.112118 64.303027 368.401488 64.303027 540.264741zM501.119697 114.414843l0 795.170315 458.57523 0L959.694927 114.414843 501.119697 114.414843zM807.216163 821.484633 653.59846 821.484633 653.59846 755.980757l153.617703 0L807.216163 821.484633zM807.216163 701.758832 653.59846 701.758832l0-65.505923 153.617703 0L807.216163 701.758832zM898.703831 390.022924 562.110793 390.022924l0-65.505923 336.594061 0L898.704854 390.022924zM898.703831 272.559653 562.110793 272.559653l0-65.505923 336.594061 0L898.704854 272.559653z" fill="#272636"></path></g></g></svg>